#N canvas 153 101 1637 808 10;
#X obj 58 684 dac~;
#X obj 294 508 *~ 1;
#X obj 293 433 pitchshift;
#X obj 692 233 sin;
#X obj 811 598 t b;
#X obj 797 160 select 0 1 2;
#X msg 820 186 1;
#X msg 788 186 1;
#X msg 725 265 0;
#X obj 294 482 hip~;
#X obj 1205 184 random 100;
#X obj 1205 232 / 100;
#X obj 1205 207 - 50;
#X msg 1171 410 0;
#X obj 848 271 mod 4;
#X obj 848 243 / 100;
#X msg 852 186 1;
#X obj 57 333 adc~ 1;
#X obj 57 498 *~ 0.1;
#X obj 775 664 + 0;
#X obj 630 741 + 0;
#X obj 252 656 *~ 0.65;
#X obj 590 58 loadbang;
#X obj 1171 110 loadbang;
#X obj 101 523 *~ 0.55;
#X obj 775 688 t b f;
#X obj 630 86 metro 5;
#X obj 797 132 t f b;
#X obj 152 604 * 100;
#X obj 100 635 rev2mod~, f 18;
#X obj 1205 141 metro 1000;
#X obj 848 295 * 1;
#X obj 630 234 / 3.1415;
#X obj 630 123 float, f 6;
#X obj 630 190 / 100;
#X obj 630 146 mod 628;
#X obj 630 168 - 314;
#X obj 682 122 + 2;
#X obj 893 236 int;
#X obj 295 608 delwrite~ \$0-del1 3000;
#X obj 311 700 delread~ \$0-del1 150;
#X obj 678 51 / 157;
#X obj 1262 98 / 157;
#X msg 590 419 0;
#X obj 1205 296 + 0;
#X obj 1205 327 * 1;
#X obj 630 601 + 0;
#X obj 741 525 t b f;
#X obj 832 359 t f f;
#X obj 832 387 sel 0;
#X obj 1311 274 t b f;
#X obj 1205 260 f;
#X obj 1291 344 t f f;
#X obj 1291 375 sel 0;
#X obj 1205 442 f;
#X obj 1283 224 t b f;
#X obj 630 445 f;
#X obj 630 561 * 1;
#X obj 630 535 + 0;
#X obj 630 511 f;
#X obj 752 484 t b f;
#X obj 708 447 t b f;
#X obj 775 632 f;
#X obj 852 626 int;
#X obj 797 86 int;
#X obj 797 109 change;
#X obj 678 27 r A__LFO_Period @hv_param 1 4000 1500;
#X obj 797 63 r A__LFO_type @hv_param 0 2.99 0;
#X obj 893 210 r A__LFO_Steps__Type2 @hv_param 2 10 4;
#X obj 890 271 r A__LFO_Steps_Scale__Type2 @hv_param -5 5 1;
#X obj 708 422 r B__General_Offset @hv_param -2 2 0;
#X obj 752 459 r B__General_Scale @hv_param -7 7 1;
#X obj 775 574 r D__Shift_Microtone @hv_param -1 1 0;
#X obj 852 602 r D__Shift_Transpose @hv_param -36 36 0;
#X obj 1262 70 r C__Random_LFO_Period @hv_param 1 4000 1500;
#X obj 1283 200 r C__Random_LFO_Offset @hv_param -2 2 0;
#X obj 1311 249 r C__Random_LFO_Scale @hv_param -7 7 0;
#X obj 1291 319 r C__Random_LFO_Switch @hv_param 0 1 0 bool;
#X obj 90 379 r Mix__Dry_Vol @hv_param 0 1 0.1;
#X obj 104 408 r Mix__Dry_Mix @hv_param 0 1 0.45;
#X obj 126 547 r Mix__Reverb_Vol @hv_param 0 1 0.5;
#X obj 152 573 r Mix__Reverb_Level @hv_param 0 1 0.85;
#X obj 331 385 r E__Shift_Window @hv_param 1 3500 1000;
#X obj 350 408 r E__Shift_Delay @hv_param 0 500 0;
#X obj 315 456 r E__HiPass_Freq @hv_param 100 2500 800;
#X obj 333 483 r E__Fx_Level @hv_param 0 1 0.7;
#X obj 311 635 r F__FX_Delay_Feedback @hv_param 0 0.97 0.65;
#X obj 311 672 r F__FX_Delay @hv_param 0 2000 500;
#X msg 760 102 0;
#X obj 630 391 spigot 0;
#X obj 692 315 spigot 0;
#X obj 743 336 spigot 0;
#X obj 630 297 spigot 1;
#X obj 832 334 r A__LFO_Switch @hv_param 0 1 0 bool;
#X obj 1205 376 spigot 0;
#X connect 1 0 39 0;
#X connect 2 0 9 0;
#X connect 3 0 90 0;
#X connect 4 0 62 0;
#X connect 5 0 7 0;
#X connect 5 1 6 0;
#X connect 5 2 16 0;
#X connect 6 0 90 1;
#X connect 7 0 92 1;
#X connect 8 0 90 1;
#X connect 8 0 91 1;
#X connect 8 0 92 1;
#X connect 9 0 1 0;
#X connect 10 0 12 0;
#X connect 11 0 51 0;
#X connect 12 0 11 0;
#X connect 13 0 54 0;
#X connect 14 0 31 0;
#X connect 15 0 14 0;
#X connect 16 0 91 1;
#X connect 17 0 2 0;
#X connect 17 0 18 0;
#X connect 17 0 24 0;
#X connect 18 0 0 0;
#X connect 18 0 0 1;
#X connect 19 0 25 0;
#X connect 20 0 2 1;
#X connect 21 0 39 0;
#X connect 22 0 26 0;
#X connect 22 0 43 0;
#X connect 22 0 88 0;
#X connect 23 0 13 0;
#X connect 23 0 30 0;
#X connect 24 0 29 0;
#X connect 25 0 56 0;
#X connect 25 1 20 1;
#X connect 26 0 33 0;
#X connect 27 0 5 0;
#X connect 27 1 8 0;
#X connect 28 0 29 2;
#X connect 29 0 0 0;
#X connect 29 1 0 1;
#X connect 29 2 0 1;
#X connect 29 3 0 1;
#X connect 30 0 10 0;
#X connect 31 0 91 0;
#X connect 32 0 92 0;
#X connect 33 0 35 0;
#X connect 33 0 37 0;
#X connect 33 0 15 0;
#X connect 34 0 3 0;
#X connect 34 0 32 0;
#X connect 35 0 36 0;
#X connect 36 0 34 0;
#X connect 37 0 33 1;
#X connect 38 0 14 1;
#X connect 40 0 21 0;
#X connect 40 0 29 0;
#X connect 41 0 26 1;
#X connect 42 0 30 1;
#X connect 43 0 56 0;
#X connect 44 0 45 0;
#X connect 45 0 94 0;
#X connect 46 0 20 0;
#X connect 47 0 56 0;
#X connect 47 1 46 1;
#X connect 48 0 49 0;
#X connect 48 1 89 1;
#X connect 49 0 43 0;
#X connect 50 0 51 0;
#X connect 50 1 45 1;
#X connect 51 0 44 0;
#X connect 52 0 53 0;
#X connect 52 1 94 1;
#X connect 53 0 13 0;
#X connect 54 0 47 0;
#X connect 55 0 51 0;
#X connect 55 1 44 1;
#X connect 56 0 59 0;
#X connect 57 0 46 0;
#X connect 58 0 57 0;
#X connect 59 0 58 0;
#X connect 60 0 56 0;
#X connect 60 1 57 1;
#X connect 61 0 56 0;
#X connect 61 1 58 1;
#X connect 62 0 19 0;
#X connect 63 0 19 1;
#X connect 64 0 65 0;
#X connect 65 0 27 0;
#X connect 66 0 41 0;
#X connect 67 0 64 0;
#X connect 68 0 38 0;
#X connect 69 0 31 1;
#X connect 70 0 61 0;
#X connect 71 0 60 0;
#X connect 72 0 62 0;
#X connect 73 0 4 0;
#X connect 73 0 63 0;
#X connect 74 0 42 0;
#X connect 75 0 55 0;
#X connect 76 0 50 0;
#X connect 77 0 52 0;
#X connect 78 0 18 1;
#X connect 79 0 24 1;
#X connect 80 0 29 1;
#X connect 81 0 28 0;
#X connect 82 0 2 2;
#X connect 83 0 2 3;
#X connect 84 0 9 1;
#X connect 85 0 1 1;
#X connect 86 0 21 1;
#X connect 87 0 40 0;
#X connect 88 0 27 0;
#X connect 89 0 56 0;
#X connect 90 0 89 0;
#X connect 91 0 89 0;
#X connect 92 0 89 0;
#X connect 93 0 48 0;
#X connect 94 0 54 0;
