#N canvas 600 155 1216 642 12;
#X floatatom 126 133 0 0 0 0 - - - 0;
#X obj 189 404 *~;
#X obj 312 341 line~;
#X floatatom 344 158 0 0 0 0 - - - 0;
#X text 439 24 PITCH SHIFTER;
#X obj 312 315 pack 0 200;
#X obj 126 189 exp;
#X floatatom 126 215 6 0 0 0 - - - 0;
#X obj 126 305 /;
#X obj 253 235 * 0.001;
#X obj 421 411 line~;
#X obj 421 386 pack 0 200;
#X floatatom 421 335 0 0 0 0 - - - 0;
#X obj 189 430 +~;
#X obj 126 456 cos~;
#X obj 126 506 *~;
#X obj 126 535 +~;
#X obj 213 363 wrap~;
#X obj 358 406 *~;
#X obj 358 439 +~;
#X obj 296 488 cos~;
#X obj 296 515 *~;
#X obj 253 262 t b f;
#X floatatom 126 331 6 0 0 0 - - - 0;
#X obj 213 336 +~ 0.5;
#X obj 126 404 -~ 0.5;
#X obj 126 430 *~ 0.5;
#X obj 295 405 -~ 0.5;
#X obj 295 438 *~ 0.5;
#X obj 126 242 - 1;
#X obj 126 163 * 0.05776;
#X obj 126 268 * -1;
#X text 160 132 <-- transposition;
#X text 203 145 (halftones);
#X text 176 215 speed;
#X text 172 232 change;
#X text 388 157 <--window (msec);
#X text 161 298 tape head;
#X text 584 153 This is a classic rotating-tape-head style pitch shifter using the vd~ variable delay object. There are two moving tape heads \, each of which is loudest at the middle of its trajectory \, and enveloped out at the moment it has to jump back (or forward) to start another scratch. Most of the brain work is in computing how fast the tape heads have to move to get the desired transposition.;
#X text 584 272 The "window size" is the total trajectory of the read points in the delay line \, in milliseconds. The delay times are controlled by a phasor~ object. The second delay time \, 180 degrees out of phase from the first one \, is computed using the "wrap" object.;
#X text 582 362 The "window size" is the total trajectory of the read points in the delay line \, in milliseconds. The delay times are controlled by a phasor~ object. The second delay time \, 180 degrees out of phase from the first one \, is computed using the "wrap" object.;
#X text 581 454 The cos~ objects compute the fadein and fadeout of the two delay line outputs. They each traverse the positive half of the cosine waveform (phase -0.25 to +0.25) over the time the phase goes from one end to the other.;
#X obj 126 362 phasor~;
#X text 848 534 updated for Pd version 0.37-1;
#X obj 421 362 max 1.5;
#X text 424 268 delay;
#X text 421 286 (msec);
#X obj 344 185 max 1;
#X text 162 311 rotation freq;
#X obj 91 33 inlet~;
#X obj 127 564 outlet~;
#X obj 126 107 inlet;
#X obj 344 132 inlet;
#X obj 421 309 inlet;
#X obj 95 72 delwrite~ \$0-shifter 5000;
#X text 515 63 This PD object is virtually the same as the audio example version \, with inlets & outlet added for use as a sub-patch. Original documentations retained below. D. Garmon \, 3/2020;
#X obj 189 456 delread4~ \$0-shifter, f 11;
#X obj 358 468 delread4~ \$0-shifter, f 11;
#X connect 0 0 30 0;
#X connect 1 0 13 0;
#X connect 2 0 1 1;
#X connect 2 0 18 1;
#X connect 3 0 47 0;
#X connect 5 0 2 0;
#X connect 6 0 7 0;
#X connect 7 0 29 0;
#X connect 8 0 23 0;
#X connect 9 0 22 0;
#X connect 10 0 13 1;
#X connect 10 0 19 1;
#X connect 11 0 10 0;
#X connect 12 0 44 0;
#X connect 13 0 56 0;
#X connect 14 0 15 0;
#X connect 15 0 16 0;
#X connect 16 0 50 0;
#X connect 17 0 18 0;
#X connect 17 0 27 0;
#X connect 18 0 19 0;
#X connect 19 0 57 0;
#X connect 20 0 21 0;
#X connect 21 0 16 1;
#X connect 22 0 8 0;
#X connect 22 1 8 1;
#X connect 23 0 42 0;
#X connect 24 0 17 0;
#X connect 25 0 26 0;
#X connect 26 0 14 0;
#X connect 27 0 28 0;
#X connect 28 0 20 0;
#X connect 29 0 31 0;
#X connect 30 0 6 0;
#X connect 31 0 8 0;
#X connect 42 0 1 0;
#X connect 42 0 25 0;
#X connect 42 0 24 0;
#X connect 44 0 11 0;
#X connect 47 0 9 0;
#X connect 47 0 5 0;
#X connect 49 0 54 0;
#X connect 51 0 0 0;
#X connect 52 0 3 0;
#X connect 53 0 12 0;
#X connect 56 0 15 1;
#X connect 57 0 21 1;
